<svg width="1058" height="785" viewBox="0 0 1058 785" fill="none" xmlns="http://www.w3.org/2000/svg">
<g id="undraw_Ride_a_bicycle_2yok 1" clip-path="url(#clip0)">
<path id="Vector" d="M170.802 116.432C165.322 123.082 163.212 132.432 160.852 141.222C141.852 212.062 95.0321 269.042 41.7121 309.742C19.1321 326.982 -8.35794 350.102 -3.41794 381.012C-0.757935 397.612 10.9121 409.832 19.5821 423.352C37.7721 451.662 43.6721 490.142 35.0021 524.032C25.1421 562.592 -2.41794 598.572 6.11206 637.562C11.3721 661.562 29.2321 678.642 46.4021 693.322C73.1887 716.209 100.829 737.649 129.322 757.642C148.422 771.042 168.742 784.082 191.002 785.782C210.602 787.282 229.802 779.832 248.412 772.482C264.672 766.052 281.342 759.362 294.472 746.482C303.042 738.072 309.872 727.222 319.392 720.342C341.752 704.182 370.472 714.422 396.112 721.342C456.612 737.582 521.362 731.652 578.932 704.602C667.242 663.102 734.552 575.952 820.932 529.192C858.072 509.082 898.472 496.602 932.862 470.702C952.237 455.956 968.887 437.938 982.062 417.462C1008.06 377.352 1022.12 326.212 1018.06 276.152C1014 226.092 991.252 177.852 955.522 149.592C917.272 119.342 868.962 113.692 825.442 95.5322C780.502 76.7722 740.522 44.5322 696.012 24.4022C659.996 8.15881 620.8 0.185006 581.3 1.06578C541.8 1.94656 502.998 11.6596 467.742 29.4922C419.302 53.9922 370.202 111.152 316.252 115.492C277.812 118.492 200.822 80.0122 170.802 116.432Z" fill="url(#paint0_linear)"/>
<g id="man-bike">
<path id="Vector_2" d="M390.47 551.194L347.763 509.05L334.417 522.574L377.124 564.718L390.47 551.194Z" fill="#535461"/>
<path id="Vector_3" d="M357.95 488.881C357.95 488.881 382.74 475.801 392.32 467.381C398.087 462.335 404.288 457.808 410.85 453.851L441.95 434.921L506.95 429.921L509.95 440.921C509.95 440.921 514.95 456.921 464.95 470.921C414.95 484.921 389.95 506.921 389.95 506.921C389.95 506.921 357.95 517.881 357.95 488.881Z" fill="#DB8B8B"/>
<path id="Vector_4" opacity="0.1" d="M392.6 504.751C390.83 506.101 389.95 506.881 389.95 506.881C389.95 506.881 357.95 517.881 357.95 488.881C357.95 488.881 359.5 488.061 361.95 486.691C364.425 490.721 367.893 494.05 372.021 496.359C376.149 498.669 380.8 499.881 385.53 499.881H388.92L392.6 504.751Z" fill="black"/>
<path id="Vector_5" opacity="0.05" d="M509.01 446.441C506.23 452.331 496.64 462.011 464.95 470.881C424.34 482.251 400.22 498.881 392.6 504.751C390.83 506.101 389.95 506.881 389.95 506.881C389.95 506.881 357.95 517.881 357.95 488.881C357.95 488.881 359.5 488.061 361.95 486.691C369.38 482.621 385.11 473.691 392.29 467.341C398.056 462.294 404.257 457.766 410.82 453.811L441.92 434.881L453.5 433.991L506.92 429.881L509.92 440.881C509.92 440.881 510.62 443.031 509.01 446.441Z" fill="black"/>
<path id="Vector_6" d="M358.45 482.381L331.95 499.881L409.55 564.881C409.55 564.881 420.95 557.881 414.95 549.881C414.95 549.881 394.95 532.881 393.95 508.881L387.95 500.881H384.56C378.828 500.882 373.237 499.102 368.559 495.788C363.882 492.474 360.35 487.789 358.45 482.381V482.381Z" fill="#ABB1D1"/>
<path id="Vector_7" opacity="0.1" d="M509.01 446.441C493.01 438.711 453.95 437.881 453.95 437.881L453.53 433.991L506.95 429.881L509.95 440.881C509.95 440.881 510.62 443.031 509.01 446.441Z" fill="black"/>
<path id="Vector_8" d="M453.95 435.881C453.95 435.881 500.95 436.881 512.95 446.881L506.95 325.881H441.95L453.95 435.881Z" fill="#ABB1D1"/>
<path id="Vector_9" opacity="0.05" d="M453.95 435.381C453.95 435.381 500.95 436.381 512.95 446.381L506.95 325.381H441.95L453.95 435.381Z" fill="black"/>
<path id="Vector_10" d="M491.71 361.841C491.71 361.841 609.36 357.841 611.76 373.051C614.16 388.261 494.11 381.851 494.11 381.851C494.11 381.851 484.51 372.241 491.71 361.841Z" fill="#535461"/>
<path id="Vector_11" opacity="0.05" d="M491.71 361.841C491.71 361.841 609.36 357.841 611.76 373.051C614.16 388.261 494.11 381.851 494.11 381.851C494.11 381.851 484.51 372.241 491.71 361.841Z" fill="black"/>
<path id="Vector_12" d="M396.47 422.671H375.66V603.551H396.47V422.671Z" fill="#6B6B6C"/>
<path id="Vector_13" opacity="0.1" d="M396.47 422.661V436.591C389.55 437.491 382.47 438.061 375.66 438.281V422.661H396.47Z" fill="black"/>
<path id="Vector_14" d="M394.91 407.671C391.99 407.445 389.086 407.054 386.21 406.501C374.93 404.341 346.49 399.811 338.84 407.501C329.24 417.101 332.44 433.911 358.05 436.311C383.66 438.711 427.68 432.311 436.49 422.701C436.49 422.661 420.56 409.641 394.91 407.671Z" fill="#535461"/>
<path id="Vector_15" d="M390.87 472.291L609.37 404.261L616.57 421.071L392.47 497.901L390.87 472.291Z" fill="#6B6B6C"/>
<path id="Vector_16" d="M455.7 579.541L613.37 424.271L622.17 437.071L471.7 593.941L455.7 579.541Z" fill="#6B6B6C"/>
<path id="Vector_17" opacity="0.1" d="M657.05 526.741C652.054 528.033 647.182 529.763 642.49 531.911L632.93 505.201C637.947 503.014 643.114 501.186 648.39 499.731L657.05 526.741Z" fill="black"/>
<path id="Vector_18" d="M683.8 605.151L672.6 611.551L594.46 393.221L590.96 383.451L609.37 373.041L613.98 387.421L683.8 605.151Z" fill="#6B6B6C"/>
<path id="Vector_19" opacity="0.1" d="M613.98 387.421L594.46 393.221L590.96 383.451L609.37 373.041L613.98 387.421Z" fill="black"/>
<path id="Vector_20" d="M494.91 404.261L604.56 366.641C604.56 366.641 623.77 369.041 616.56 385.051L506.12 417.861C506.12 417.861 489.32 419.461 494.91 404.261Z" fill="#535461"/>
<path id="Vector_21" opacity="0.1" d="M371.26 612.751C371.259 618.885 370.784 625.01 369.84 631.071C360.24 630.381 350.32 629.381 340.6 628.381C342.759 616.49 342.491 604.285 339.81 592.501C349.28 590.501 358.95 588.591 368.39 586.861C370.303 595.358 371.265 604.041 371.26 612.751V612.751Z" fill="black"/>
<path id="Vector_22" opacity="0.1" d="M396.47 582.271V603.541H375.66V585.541C382.86 584.291 389.86 583.181 396.47 582.271Z" fill="black"/>
<path id="Vector_23" d="M262.01 612.381C262.01 612.381 430.09 568.381 443.69 585.171C457.29 601.961 471.7 624.381 429.32 632.381C386.94 640.381 258.84 618.771 258.84 618.771L262.01 612.381Z" fill="#6B6B6C"/>
<path id="Vector_24" opacity="0.1" d="M344.68 538.261L323.32 557.811C319.537 552.955 315.261 548.504 310.56 544.531L330.5 523.701C335.634 528.14 340.378 533.011 344.68 538.261V538.261Z" fill="black"/>
<path id="Vector_25" d="M256.41 603.551L382.06 472.291L386.07 502.701L262.81 615.551L256.41 603.551Z" fill="#6B6B6C"/>
<path id="Vector_26" opacity="0.1" d="M254.81 625.161C261.885 625.161 267.62 619.426 267.62 612.351C267.62 605.276 261.885 599.541 254.81 599.541C247.735 599.541 242 605.276 242 612.351C242 619.426 247.735 625.161 254.81 625.161Z" fill="black"/>
<path id="Vector_27" opacity="0.1" d="M678.6 623.961C685.675 623.961 691.41 618.226 691.41 611.151C691.41 604.076 685.675 598.341 678.6 598.341C671.525 598.341 665.79 604.076 665.79 611.151C665.79 618.226 671.525 623.961 678.6 623.961Z" fill="black"/>
<path id="Vector_28" opacity="0.1" d="M451.69 625.161C465.834 625.161 477.3 613.695 477.3 599.551C477.3 585.407 465.834 573.941 451.69 573.941C437.546 573.941 426.08 585.407 426.08 599.551C426.08 613.695 437.546 625.161 451.69 625.161Z" fill="black"/>
<path id="Vector_29" d="M453.3 625.161C467.444 625.161 478.91 613.695 478.91 599.551C478.91 585.407 467.444 573.941 453.3 573.941C439.156 573.941 427.69 585.407 427.69 599.551C427.69 613.695 439.156 625.161 453.3 625.161Z" fill="#535461"/>
<path id="Vector_30" d="M446.462 597.627L446.454 597.633C443.447 599.882 442.832 604.143 445.081 607.151L465.407 634.331C467.656 637.339 471.918 637.954 474.925 635.705L474.933 635.699C477.941 633.449 478.555 629.188 476.306 626.181L455.98 599C453.731 595.993 449.47 595.378 446.462 597.627Z" fill="#6C63FF"/>
<path id="Vector_31" d="M568.95 243.881L566.57 273.991C566.296 277.805 566.346 281.635 566.72 285.441C567.03 288.811 566.72 294.711 563.42 303.711C559.183 315.208 556.993 327.358 556.95 339.611V373.881L533.95 369.881C533.95 369.881 534.95 321.881 530.95 313.881C526.95 305.881 533.95 234.881 533.95 234.881L568.95 243.881Z" fill="#DB8B8B"/>
<path id="Vector_32" opacity="0.05" d="M567.77 258.801L566.57 273.991C566.3 277.802 566.353 281.629 566.73 285.431C567.04 288.801 566.73 294.701 563.43 303.711C559.193 315.208 557.003 327.358 556.96 339.611V373.881L533.96 369.881C533.96 369.881 534.96 321.881 530.96 313.881C528.13 308.211 530.81 270.941 532.62 249.671C533.37 240.921 533.96 234.881 533.96 234.881L568.96 243.881L567.77 258.801Z" fill="black"/>
<path id="Vector_33" d="M454.97 473.881L446.32 523.081C445.229 529.65 443.556 536.109 441.32 542.381C436.25 556.241 439.49 575.671 441.95 586.271C443.04 590.951 443.95 593.911 443.95 593.911L417.95 607.911L409.95 601.911V597.911L408.95 508.911C402.95 494.911 404.95 473.911 408.95 465.911C410.087 463.282 410.887 460.52 411.33 457.691C413.33 446.971 413.95 431.911 413.95 431.911C413.95 431.911 429.95 404.911 448.95 422.911C455.95 429.541 458.61 438.211 459.17 446.511C460.15 460.721 454.97 473.881 454.97 473.881Z" fill="#DB8B8B"/>
<path id="Vector_34" opacity="0.1" d="M459.17 446.481C445.3 454.721 421.17 457.051 411.33 457.661C413.33 446.941 413.95 431.881 413.95 431.881C413.95 431.881 429.95 404.881 448.95 422.881C455.95 429.511 458.61 438.181 459.17 446.481Z" fill="black"/>
<path id="Vector_35" d="M492.95 421.881C482.316 427.544 472.267 434.243 462.95 441.881C446.95 454.881 406.95 455.881 406.95 455.881V440.881C407.95 422.881 390.95 402.881 367.95 346.881C353.26 311.121 357.33 290.881 362.19 280.881C364.95 275.231 367.95 272.881 367.95 272.881L492.95 296.881L497.42 310.281L506.95 338.881C506.95 338.881 471.95 340.881 465.95 343.881C459.95 346.881 463.95 373.881 463.95 373.881C457.95 401.881 492.95 421.881 492.95 421.881Z" fill="#ABB1D1"/>
<path id="Vector_36" opacity="0.1" d="M568.95 243.881L567.77 258.801C550.37 263.801 537.95 247.881 537.95 247.881C536.135 248.367 534.352 248.965 532.61 249.671C533.36 240.921 533.95 234.881 533.95 234.881L568.95 243.881Z" fill="black"/>
<path id="Vector_37" opacity="0.1" d="M497.42 310.281C496.95 314.951 496.95 317.881 496.95 317.881C496.95 317.881 473.95 336.881 434.95 307.881C395.95 278.881 360.95 286.881 360.95 286.881C360.95 286.881 361.36 284.561 362.19 280.881C364.95 275.231 367.95 272.881 367.95 272.881L492.95 296.881L497.42 310.281Z" fill="black"/>
<path id="Vector_38" d="M582.43 204.831C579.82 225.181 578.95 250.831 578.95 250.831C555.95 268.831 537.95 245.831 537.95 245.831C516.23 251.661 506.02 270.671 501.21 287.261C498.634 296.235 497.202 305.498 496.95 314.831C496.95 314.831 490.87 319.831 479.67 320.831C469.08 321.721 453.9 318.961 434.95 304.831C395.95 275.831 360.95 283.831 360.95 283.831C360.95 283.831 367.95 243.831 383.95 231.831C399.95 219.831 411.95 204.831 431.95 158.831C451.95 112.831 492.95 123.831 492.95 123.831C492.95 123.831 494.95 114.831 531.95 123.831C540.962 126.193 549.304 130.612 556.32 136.741C576.11 153.381 585.71 179.191 582.43 204.831Z" fill="white"/>
<path id="Vector_39" d="M545.32 146.381C545.27 147.711 545.16 149.191 544.98 150.841C542.98 168.841 540.98 166.841 518.98 170.841C505.3 173.331 498.19 161.901 494.77 152.901C493.532 149.641 492.598 146.273 491.98 142.841L539.98 134.841C539.98 134.841 545.73 133.231 545.32 146.381Z" fill="#DB8B8B"/>
<path id="Vector_40" opacity="0.05" d="M501.21 287.311C498.634 296.285 497.202 305.548 496.95 314.881C496.95 314.881 490.87 319.881 479.67 320.881C479.354 320.244 479.113 319.573 478.95 318.881C476.95 309.881 461.95 293.881 461.95 293.881C451.95 284.881 449.95 268.881 449.95 268.881L433.45 220.381L427.95 215.881C427.95 215.881 450.95 197.881 470.95 212.881C490.95 227.881 484.95 259.881 484.95 259.881L488.95 270.881C493.1 274.381 497.32 280.551 501.21 287.311Z" fill="black"/>
<path id="Vector_41" d="M430.95 214.881L452.95 267.881C452.95 267.881 454.95 283.881 464.95 292.881C464.95 292.881 479.95 308.881 481.95 317.881C483.95 326.881 511.95 350.881 511.95 350.881C511.95 350.881 537.95 374.881 539.95 383.881C539.95 383.881 563.95 390.881 560.95 404.881C560.95 404.881 578.95 386.881 560.95 369.881C542.95 352.881 518.95 317.881 518.95 317.881C518.95 317.881 504.95 280.881 491.95 269.881L487.95 258.881C487.95 258.881 493.95 226.881 473.95 211.881C453.95 196.881 430.95 214.881 430.95 214.881Z" fill="#DB8B8B"/>
<path id="Vector_42" opacity="0.1" d="M443.95 593.881L417.95 607.881L409.95 601.881V597.881C418.934 597.243 427.663 594.609 435.5 590.171C437.9 588.811 440.16 587.471 441.97 586.291C443.02 590.921 443.95 593.881 443.95 593.881Z" fill="black"/>
<path id="Vector_43" opacity="0.1" d="M473.95 172.881L487.95 227.881C487.95 227.881 444.95 234.881 435.95 227.881C426.95 220.881 409.95 218.881 409.95 218.881C409.95 218.881 427.95 166.881 437.95 160.881C447.95 154.881 473.95 172.881 473.95 172.881Z" fill="black"/>
<path id="Vector_44" d="M473.95 170.881L487.95 225.881C487.95 225.881 444.95 232.881 435.95 225.881C426.95 218.881 409.95 216.881 409.95 216.881C409.95 216.881 427.95 164.881 437.95 158.881C447.95 152.881 473.95 170.881 473.95 170.881Z" fill="white"/>
<path id="Vector_45" opacity="0.1" d="M545.32 145.381C542.519 149.247 538.957 152.499 534.853 154.938C530.748 157.376 526.188 158.949 521.453 159.56C516.718 160.171 511.909 159.806 507.32 158.489C502.731 157.172 498.46 154.93 494.77 151.901C493.532 148.641 492.598 145.273 491.98 141.841L539.98 133.841C539.98 133.841 545.73 132.231 545.32 145.381Z" fill="black"/>
<path id="Vector_46" d="M551.95 123.881C551.95 133.163 548.263 142.066 541.699 148.63C535.135 155.193 526.233 158.881 516.95 158.881C507.667 158.881 498.765 155.193 492.201 148.63C485.638 142.066 481.95 133.163 481.95 123.881C481.95 123.301 481.95 122.721 481.95 122.141C482.181 112.858 486.09 104.048 492.816 97.6469C499.543 91.2463 508.537 87.7801 517.82 88.0108C527.103 88.2416 535.913 92.1503 542.314 98.8773C548.715 105.604 552.181 114.598 551.95 123.881V123.881Z" fill="#DB8B8B"/>
<path id="Vector_47" opacity="0.05" d="M388.45 231.381C388.45 231.381 414.45 238.381 422.45 256.381C430.45 274.381 452.09 277.671 452.09 277.671" fill="black"/>
<path id="Vector_48" d="M486.45 627.381H426.45V646.381H486.45V627.381Z" fill="#535461"/>
<path id="Vector_49" d="M435.46 592.121C440.83 589.121 445.54 586.121 445.95 584.881C445.95 584.881 459.5 599.181 471.57 603.621C475.629 605.12 479.514 607.051 483.16 609.381C487.94 612.381 494.76 615.911 500.95 615.911C500.95 615.911 514.95 627.911 487.95 629.911C460.95 631.911 397.95 624.911 397.95 624.911L401.95 599.911C413.637 600.596 425.274 597.891 435.46 592.121Z" fill="#ABB1D1"/>
</g>
<g id="Left-wheel">
<path id="Vector_50" d="M257.725 717.778L251.455 619.838L251.325 619.628L245.005 621.828L215.925 706.678L169.675 673.888L243.345 620.478L243.415 620.268L243.835 620.118L248.585 616.668L171.345 573.358L152.425 594.158L155.425 613.658L244.245 615.278V617.278L153.765 615.658L150.345 593.518L176.245 565.058L214.995 519.858L215.685 521.728L223.885 512.728L254.345 518.188V516.978L256.345 517.038V518.548L301.705 526.668L259.415 611.278L253.245 615.748V616.248V616.808L351.045 582.728L339.435 673.938L256.435 621.068L253.515 619.428L302.455 698.308L257.725 717.778ZM253.725 623.438L259.575 714.818L299.625 697.438L253.725 623.438ZM173.145 673.868L214.935 703.498L242.275 623.758L173.145 673.868ZM255.465 618.208L257.555 619.378L337.905 670.578L348.705 585.708L255.465 618.208ZM248.365 611.008L250.875 615.058L251.315 614.738L254.315 520.208L224.575 514.888L216.415 523.888L248.365 611.008ZM172.945 571.948L247.785 613.948L246.485 611.818L214.905 525.548L177.715 566.418L172.945 571.948ZM256.345 520.558L253.345 613.278L257.865 609.998L298.775 528.178L256.345 520.558Z" fill="#535461"/>
<path id="Vector_51" d="M367.415 590.738C363.405 572.919 355.285 556.283 343.705 542.158C339.406 536.909 334.666 532.038 329.535 527.598C309.809 510.567 284.986 500.568 258.962 499.17C232.938 497.771 207.187 505.053 185.749 519.873C164.311 534.693 148.401 556.211 140.515 581.05C132.629 605.89 133.214 632.645 142.178 657.116C151.142 681.587 167.978 702.39 190.042 716.258C212.107 730.127 238.152 736.277 264.09 733.743C290.028 731.208 314.39 720.134 333.353 702.257C352.317 684.379 364.807 660.712 368.865 634.968C369.809 628.907 370.284 622.783 370.285 616.648C370.292 607.932 369.329 599.242 367.415 590.738ZM252.225 705.088C233.993 705.069 216.209 699.435 201.292 688.953C186.374 678.47 175.047 663.648 168.851 646.501C162.655 629.354 161.89 610.715 166.66 593.118C171.43 575.521 181.505 559.82 195.513 548.15C209.521 536.48 226.783 529.408 244.953 527.895C263.122 526.381 281.316 530.501 297.062 539.693C312.807 548.884 325.34 562.703 332.956 579.268C340.571 595.834 342.9 614.343 339.625 632.278C335.875 652.722 325.076 671.203 309.107 684.506C293.137 697.809 273.01 705.093 252.225 705.088V705.088Z" fill="#535461"/>
<path id="Vector_52" d="M252.225 629.058C259.3 629.058 265.035 623.323 265.035 616.248C265.035 609.174 259.3 603.438 252.225 603.438C245.15 603.438 239.415 609.174 239.415 616.248C239.415 623.323 245.15 629.058 252.225 629.058Z" fill="#535461"/>
</g>
<g id="Right-wheel">
<path id="Vector_53" d="M683.847 717.78L677.587 619.88L677.457 619.67L671.137 621.87L642.047 706.68L595.797 673.88L669.487 620.47L669.557 620.26L669.977 620.11L674.727 616.66L597.487 573.35L578.557 594.15L581.557 613.65L670.357 615.23V617.23L579.877 615.61L576.477 593.5L602.367 565.05L641.087 519.88L641.777 521.75L649.977 512.75L680.517 518.22V517.01L682.517 517.07V518.58L727.877 526.7L685.547 611.35L679.377 615.82V616.32V616.88L777.187 582.8L765.577 674.01L682.577 621.14L679.657 619.5L728.597 698.39L683.847 717.78ZM679.847 623.44L685.697 714.82L725.747 697.44L679.847 623.44ZM599.277 673.88L641.067 703.51L668.407 623.77L599.277 673.88ZM681.597 618.22L683.687 619.39L764.037 670.59L774.837 585.72L681.597 618.22ZM674.497 611.02L677.007 615.07L677.447 614.75L680.447 520.22L650.707 514.88L642.547 523.88L674.497 611.02ZM599.107 571.97L673.947 613.97L672.647 611.84L641.067 525.57L603.867 566.45L599.107 571.97ZM682.477 520.58L679.477 613.27L683.997 609.99L724.907 528.17L682.477 520.58Z" fill="#535461"/>
<path id="Vector_54" d="M678.757 499C668.144 498.988 657.578 500.415 647.347 503.24C642.071 504.695 636.904 506.523 631.887 508.71C605.157 520.297 583.674 541.387 571.594 567.898C559.514 594.41 557.697 624.459 566.492 652.233C575.287 680.008 594.071 703.533 619.209 718.259C644.348 732.984 674.054 737.863 702.582 731.952C731.109 726.04 756.431 709.759 773.648 686.257C790.865 662.755 798.754 633.702 795.789 604.72C792.823 575.738 779.215 548.885 757.595 529.356C735.975 509.828 707.881 499.012 678.747 499H678.757ZM678.357 705.09C658.076 705.082 638.408 698.137 622.62 685.407C606.831 672.678 595.872 654.931 591.562 635.113C587.252 615.295 589.851 594.599 598.928 576.463C608.004 558.326 623.011 543.84 641.457 535.41C646.149 533.262 651.021 531.532 656.017 530.24C668.229 527.07 680.977 526.537 693.411 528.678C705.845 530.818 717.681 535.581 728.13 542.652C738.58 549.722 747.404 558.937 754.015 569.683C760.627 580.429 764.873 592.46 766.473 604.975C768.073 617.49 766.989 630.202 763.293 642.265C759.598 654.329 753.375 665.467 745.04 674.939C736.704 684.41 726.447 691.998 714.951 697.196C703.455 702.395 690.984 705.086 678.367 705.09H678.357Z" fill="#535461"/>
<path id="Vector_55" d="M678.357 629.06C685.432 629.06 691.167 623.325 691.167 616.25C691.167 609.175 685.432 603.44 678.357 603.44C671.282 603.44 665.547 609.175 665.547 616.25C665.547 623.325 671.282 629.06 678.357 629.06Z" fill="#535461"/>
</g>
<g id="Hat">
<path id="Vector_56" opacity="0.1" d="M548.48 112.99C548.483 116.216 548.039 119.426 547.16 122.53C544.455 123.12 541.633 122.861 539.08 121.79C535.34 120.32 532.13 117.79 528.54 115.97C518.43 110.85 506.4 111.86 495.2 113.55C489.64 114.39 483.33 115.17 478.96 111.63C478.81 111.511 478.666 111.385 478.53 111.25C478.761 101.967 482.67 93.1567 489.396 86.7561C496.123 80.3555 505.117 76.8893 514.4 77.12C523.683 77.3508 532.493 81.2595 538.894 87.9865C545.295 94.7134 548.761 103.707 548.53 112.99H548.48Z" fill="black"/>
<path id="Vector_57" d="M454.624 93.9267C456.754 100.607 466.984 100.817 472.234 105.737C474.964 108.297 476.234 112.077 479.234 114.357C483.404 117.537 489.424 116.837 494.734 116.077C505.424 114.557 516.904 113.647 526.544 118.257C529.964 119.887 533.034 122.167 536.604 123.497C540.174 124.827 544.604 124.987 547.504 122.627C549.824 120.737 550.674 117.627 552.774 115.547C554.404 113.907 556.674 112.987 558.534 111.547C562.614 108.467 564.374 103.447 565.534 98.6467C567.934 88.7667 568.624 78.1167 564.534 68.7467C560.444 59.3767 550.604 51.7467 539.864 52.2367C536.574 52.3867 533.364 53.2367 530.084 53.5967C521.534 54.4667 513.084 51.5967 504.504 51.1067C502.015 50.8039 499.49 51.1483 497.174 52.1067C495.427 53.0775 493.92 54.4273 492.764 56.0567C488.836 61.2021 486.146 67.1836 484.904 73.5367C483.904 78.3267 483.854 82.6667 477.984 83.4067C471.314 84.2867 450.114 79.7967 454.624 93.9267Z" fill="#472727"/>
</g>
</g>
<defs>
<linearGradient id="paint0_linear" x1="918.072" y1="146.002" x2="58.0721" y2="708.002" gradientUnits="userSpaceOnUse">
<stop stop-color="#7DEFFF"/>
<stop offset="1" stop-color="#CA61FB"/>
<stop offset="1" stop-color="#FF63EF"/>
<stop offset="1" stop-color="#7963FF"/>
</linearGradient>
<clipPath id="clip0">
<rect width="1057.7" height="784.98" fill="white"/>
</clipPath>
</defs>
</svg>
